<svg xmlns="http://www.w3.org/2000/svg" xmlns:xlink="http://www.w3.org/1999/xlink" width="500" zoomAndPan="magnify" viewBox="0 0 375 374.999991" height="500" preserveAspectRatio="xMidYMid meet" version="1.0"><defs><clipPath id="b1801b249b"><path d="M 72 89.960938 L 303 89.960938 L 303 237 L 72 237 Z M 72 89.960938 " clip-rule="nonzero"/></clipPath><clipPath id="80c034cd92"><path d="M 120 271 L 255 271 L 255 284.78125 L 120 284.78125 Z M 120 271 " clip-rule="nonzero"/></clipPath><clipPath id="75a1c76e73"><path d="M 237 116.519531 L 253.40625 116.519531 L 253.40625 178 L 237 178 Z M 237 116.519531 " clip-rule="nonzero"/></clipPath><clipPath id="1429611b08"><path d="M 190 179 L 250 179 L 250 200.765625 L 190 200.765625 Z M 190 179 " clip-rule="nonzero"/></clipPath><clipPath id="8058ceb919"><path d="M 124 185 L 188 185 L 188 200.765625 L 124 200.765625 Z M 124 185 " clip-rule="nonzero"/></clipPath><clipPath id="d1e3c4815f"><path d="M 121.769531 123 L 133 123 L 133 186 L 121.769531 186 Z M 121.769531 123 " clip-rule="nonzero"/></clipPath></defs><rect x="-37.5" width="450" fill="#ffffff" y="-37.499999" height="449.999989" fill-opacity="1"/><rect x="-37.5" width="450" fill="#ffffff" y="-37.499999" height="449.999989" fill-opacity="1"/><rect x="-37.5" width="450" fill="#ffffff" y="-37.499999" height="449.999989" fill-opacity="1"/><path fill="#e5e9ff" d="M 214.582031 276.769531 L 160.441406 276.769531 C 157.957031 276.769531 155.941406 274.757812 155.941406 272.277344 L 155.941406 236.289062 C 155.941406 233.808594 157.957031 231.796875 160.441406 231.796875 L 214.582031 231.796875 C 217.070312 231.796875 219.082031 233.808594 219.082031 236.289062 L 219.082031 272.277344 C 219.082031 274.757812 217.070312 276.769531 214.582031 276.769531 Z M 214.582031 276.769531 " fill-opacity="1" fill-rule="nonzero"/><g clip-path="url(#b1801b249b)"><path fill="#506eff" d="M 287.394531 236.722656 L 87.628906 236.722656 C 79.066406 236.722656 72.109375 229.773438 72.109375 221.222656 L 72.109375 105.460938 C 72.109375 96.90625 79.066406 89.960938 87.628906 89.960938 L 287.378906 89.960938 C 295.957031 89.960938 302.902344 96.90625 302.902344 105.460938 L 302.902344 221.207031 C 302.914062 229.773438 295.957031 236.722656 287.394531 236.722656 Z M 287.394531 236.722656 " fill-opacity="1" fill-rule="nonzero"/></g><g clip-path="url(#80c034cd92)"><path fill="#e5e9ff" d="M 247.421875 284.78125 L 127.601562 284.78125 C 123.886719 284.78125 120.875 281.773438 120.875 278.066406 C 120.875 274.355469 123.886719 271.347656 127.601562 271.347656 L 247.421875 271.347656 C 251.136719 271.347656 254.148438 274.355469 254.148438 278.066406 C 254.148438 281.773438 251.136719 284.78125 247.421875 284.78125 Z M 247.421875 284.78125 " fill-opacity="1" fill-rule="nonzero"/></g><g clip-path="url(#75a1c76e73)"><path fill="#ffffff" d="M 253.324219 177.753906 L 243.59375 116.519531 C 241.652344 116.652344 239.726562 116.800781 237.835938 116.96875 L 247.566406 176.75 Z M 253.324219 177.753906 " fill-opacity="1" fill-rule="nonzero"/></g><g clip-path="url(#1429611b08)"><path fill="#ffffff" d="M 190.992188 200.351562 L 192.148438 200.21875 C 193.21875 199.167969 194.511719 198.375 195.9375 197.894531 L 249.199219 179.980469 L 246.261719 179.46875 C 231.683594 181.40625 195.457031 188.707031 190.992188 200.351562 Z M 190.992188 200.351562 " fill-opacity="1" fill-rule="nonzero"/></g><path fill="#ffffff" d="M 190.34375 195.914062 C 194.597656 190.808594 203.808594 186.265625 217.882812 182.355469 C 229.265625 179.195312 240.644531 177.371094 244.617188 176.777344 L 234.933594 117.25 C 210.222656 119.777344 198.792969 125.105469 193.542969 129.171875 C 187.996094 133.476562 188.210938 137.078125 188.222656 137.230469 L 187.675781 137.335938 L 188.226562 137.3125 Z M 190.34375 195.914062 " fill-opacity="1" fill-rule="nonzero"/><g clip-path="url(#8058ceb919)"><path fill="#ffffff" d="M 179.980469 193.492188 C 173.277344 189.710938 159.226562 185.285156 130.316406 185.636719 L 124.792969 187.207031 L 181.296875 198.394531 C 183.023438 198.734375 184.632812 199.527344 185.953125 200.691406 L 187.339844 200.765625 C 186.734375 199.167969 184.992188 196.328125 179.980469 193.492188 Z M 179.980469 193.492188 " fill-opacity="1" fill-rule="nonzero"/></g><path fill="#ffffff" d="M 181.414062 190.972656 C 184.160156 192.523438 186.078125 194.128906 187.421875 195.625 L 185.328125 137.632812 C 182.445312 128.546875 168.964844 125.09375 158.125 123.800781 C 148.296875 122.625 138.8125 122.980469 135.484375 123.167969 L 131.652344 182.730469 C 154.675781 182.5625 171.414062 185.332031 181.414062 190.972656 Z M 181.414062 190.972656 " fill-opacity="1" fill-rule="nonzero"/><g clip-path="url(#d1e3c4815f)"><path fill="#ffffff" d="M 128.710938 183.085938 L 132.554688 123.414062 L 126.148438 124.1875 L 121.855469 185.445312 Z M 128.710938 183.085938 " fill-opacity="1" fill-rule="nonzero"/></g></svg>